# xmcd
# Track frame offsets:
# 150
# 18997
# 43159
# 59763
# 72773
# 82704
# 98006
# 116972
# 129000
# 148196
#
# Disc length: 2221 seconds
# Revision: 0
# Processed by: cddbd v1.4PL0 Copyright (c) Steve Scherf et al.
# Submitted via: VisiTrax 2.9.5.181 - For more info visit www.synapsa.com
#
DISCID=8508ab0a
DTITLE=BRYGGERIGANGEN BLUESBAND - BLÅTT BRYGG
DYEAR=1979
DGENRE=
TTITLE0=NO MORE SLUMBER
TTITLE1=SITTER INNE OG SER UT
TTITLE2=BIG BOSS MAN
TTITLE3=RENSKA
TTITLE4=FREELANCE
TTITLE5=JOHN WESLEY HARDIN
TTITLE6=BLUEBERRY HILL
TTITLE7=(DIN'T YOU) SLAM THE DOOR
TTITLE8=JEG ER FOR LAT
TTITLE9=I'M GOING DOWN TO THE RIVER
EXTD=
EXTT0=
EXTT1=
EXTT2=
EXTT3=
EXTT4=
EXTT5=
EXTT6=
EXTT7=
EXTT8=
EXTT9=
PLAYORDER=
